<svg width="27" height="27" viewBox="0 0 27 27" fill="none" xmlns="http://www.w3.org/2000/svg">
<path fill-rule="evenodd" clip-rule="evenodd" d="M13.5 24.75C19.7131 24.75 24.75 19.7131 24.75 13.5C24.75 7.28679 19.7131 2.25 13.5 2.25C7.28679 2.25 2.25 7.28679 2.25 13.5C2.25 19.7131 7.28679 24.75 13.5 24.75ZM14.3438 10.125C14.3438 9.65901 13.966 9.28125 13.5 9.28125C13.034 9.28125 12.6562 9.65901 12.6562 10.125V12.6562H10.125C9.65901 12.6562 9.28125 13.034 9.28125 13.5C9.28125 13.966 9.65901 14.3438 10.125 14.3438H12.6562V16.875C12.6562 17.341 13.034 17.7188 13.5 17.7188C13.966 17.7188 14.3438 17.341 14.3438 16.875V14.3438H16.875C17.341 14.3438 17.7188 13.966 17.7188 13.5C17.7188 13.034 17.341 12.6562 16.875 12.6562H14.3438V10.125Z" fill="#00BD29"/>
</svg>
