<svg width="35" height="27" viewBox="0 0 35 27" fill="none" xmlns="http://www.w3.org/2000/svg">
<g clip-path="url(#clip0_599_482)">
<path d="M7.59434 15.2552L17.8604 23.8941C18.6901 24.6491 18.5699 25.7803 17.5919 26.4207C16.6139 27.0611 15.1485 26.9683 14.3188 26.2134L0.66686 14.7253C0.47055 14.5731 0.311473 14.3947 0.197286 14.1988C0.0552891 13.9553 -0.0142843 13.6903 -0.00632998 13.4233L-0.00629591 13.4217C0.00160873 13.1553 0.0861467 12.8936 0.241198 12.6555C0.256275 12.6325 0.271995 12.6097 0.288346 12.5872C0.382965 12.4565 0.498594 12.3356 0.632487 12.2272L14.6475 0.555154C15.5193 -0.170933 16.9885 -0.213955 17.9291 0.459012C18.8697 1.13198 18.9255 2.26617 18.0537 2.99223L7.63389 11.6701H32.5182C33.8007 11.6701 34.8404 12.4727 34.8404 13.4627C34.8404 14.4527 33.8007 15.2553 32.5182 15.2553H7.59434V15.2552Z" fill="white"/>
</g>
<defs>
<clipPath id="clip0_599_482">
<rect width="34.8842" height="26.9282" fill="white"/>
</clipPath>
</defs>
</svg>
