<svg width="30" height="30" viewBox="0 0 30 30" fill="none" xmlns="http://www.w3.org/2000/svg">
<path fill-rule="evenodd" clip-rule="evenodd" d="M6.75 3.75H23.25C24.0456 3.75 24.8087 4.06607 25.3713 4.62868C25.9339 5.19129 26.25 5.95435 26.25 6.75V23.25C26.25 24.0456 25.9339 24.8087 25.3713 25.3713C24.8087 25.9339 24.0456 26.25 23.25 26.25H6.75C5.95435 26.25 5.19129 25.9339 4.62868 25.3713C4.06607 24.8087 3.75 24.0456 3.75 23.25V6.75C3.75 6.35603 3.8276 5.96593 3.97836 5.60195C4.12913 5.23797 4.3501 4.90726 4.62868 4.62868C5.19129 4.06607 5.95435 3.75 6.75 3.75ZM10 13.75C9.66848 13.75 9.35054 13.8817 9.11612 14.1161C8.8817 14.3505 8.75 14.6685 8.75 15C8.75 15.3315 8.8817 15.6495 9.11612 15.8839C9.35054 16.1183 9.66848 16.25 10 16.25H20C20.3315 16.25 20.6495 16.1183 20.8839 15.8839C21.1183 15.6495 21.25 15.3315 21.25 15C21.25 14.6685 21.1183 14.3505 20.8839 14.1161C20.6495 13.8817 20.3315 13.75 20 13.75H10Z" fill="#FF3838"/>
</svg>
