<svg width="24" height="24" viewBox="0 0 24 24" fill="none" xmlns="http://www.w3.org/2000/svg">
<g clip-path="url(#clip0_653_2)">
<path d="M21.8203 0H8.72812C7.52344 0 6.54844 0.979687 6.54844 2.17969V15.2719C6.54844 16.4766 7.52812 17.4516 8.72812 17.4516H21.8203C23.025 17.4516 24 16.4719 24 15.2719V2.17969C24 0.979687 23.0203 0 21.8203 0ZM20.7281 9.82031H9.82031V7.64062H20.7281V9.82031ZM4.36406 15.2719V6.54375H2.17969C0.979687 6.54375 0 7.52344 0 8.72812V21.8203C0 23.0203 0.979687 24 2.17969 24H15.2719C16.4766 24 17.4516 23.0203 17.4516 21.8203V19.6406H8.72812C6.31875 19.6359 4.36406 17.6812 4.36406 15.2719Z" fill="#FF3838" stroke="#FF3838" stroke-width="0.390625"/>
</g>
<defs>
<clipPath id="clip0_653_2">
<rect width="24" height="24" fill="white"/>
</clipPath>
</defs>
</svg>
