<svg width="78" height="78" viewBox="0 0 78 78" fill="none" xmlns="http://www.w3.org/2000/svg">
<path d="M51.5738 48.0504C48.5032 56.7145 42.8775 65.3658 36.4425 65.3658C33.6643 65.3658 31.0385 64.7193 28.7028 63.5743C28.2195 63.3378 27.6547 63.3378 27.172 63.5743C24.8357 64.7193 22.2105 65.3658 19.4324 65.3658C9.70978 65.3658 1.82812 45.6172 1.82812 35.9147C1.82812 26.2123 9.70978 18.3471 19.4318 18.3471C22.2105 18.3471 24.8357 18.9936 27.172 20.1386C27.6547 20.3751 28.2195 20.3751 28.7022 20.1386C31.0385 18.9936 33.6637 18.3471 36.4425 18.3471C36.7155 18.3471 36.9872 18.3532 37.2572 18.3653C44.8896 18.7127 51.1771 24.5499 52.647 32.1512C53.4251 36.1737 53.6018 41.6368 51.5738 48.0504Z" fill="#DF2B2B"/>
<path d="M28.8216 6.37711C26.9581 9.29967 26.729 12.7158 27.8765 15.6884C31.2 15.2472 34.2926 13.4526 36.1554 10.53C38.0183 7.60744 38.248 4.19128 37.1006 1.21875C33.777 1.65994 30.6845 3.45455 28.8216 6.37711Z" fill="#286F0D"/>
<path d="M28.1263 20.8942C27.4536 20.8942 26.9076 20.3482 26.9076 19.6755V17.8571C26.9076 15.1692 25.584 12.689 23.3665 11.2229C22.8053 10.8517 22.6511 10.0955 23.0222 9.53428C23.3939 8.97304 24.1508 8.81887 24.7108 9.18998C27.6126 11.1089 29.3445 14.349 29.3445 17.8577V19.6761C29.3451 20.3482 28.7997 20.8942 28.1263 20.8942Z" fill="#63271D"/>
<path d="M14.3227 35.9147C14.3227 28.4121 19.0375 22.0112 25.6693 19.4933C23.7297 18.7572 21.6298 18.3471 19.4311 18.3471C9.70978 18.3465 1.82812 26.2123 1.82812 35.9147C1.82812 45.6172 9.70978 65.3658 19.4318 65.3658C22.1325 65.3658 24.6864 64.751 26.9722 63.6657C19.6633 58.6798 14.3227 43.9 14.3227 35.9147Z" fill="#D1262C"/>
<path d="M8.07544 35.9147C8.07544 27.275 14.327 20.0966 22.5609 18.6274C21.5451 18.4446 20.5 18.3471 19.4317 18.3471C9.70978 18.3465 1.82812 26.2123 1.82812 35.9147C1.82812 45.6172 9.70978 65.3658 19.4317 65.3658C20.7419 65.3658 22.0161 65.2171 23.244 64.9454C14.675 62.0691 8.07544 44.7921 8.07544 35.9147Z" fill="#B7252C"/>
<path d="M17.94 26.002C18.6299 26.002 19.1892 25.4381 19.1892 24.7425C19.1892 24.0468 18.6299 23.4829 17.94 23.4829C17.2501 23.4829 16.6908 24.0468 16.6908 24.7425C16.6908 25.4381 17.2501 26.002 17.94 26.002Z" fill="#EDA07A"/>
<path d="M12.5361 37.217C13.226 37.217 13.7853 36.653 13.7853 35.9574C13.7853 35.2617 13.226 34.6978 12.5361 34.6978C11.8462 34.6978 11.2869 35.2617 11.2869 35.9574C11.2869 36.653 11.8462 37.217 12.5361 37.217Z" fill="#FCBEBE"/>
<path d="M64.0319 76.2907C70.7168 74.9629 75.8501 69.2835 76.1554 62.389C76.1664 62.1453 76.1719 61.8997 76.1719 61.6529C76.1719 59.1429 75.6033 56.7712 74.5966 54.6609C74.518 54.4958 74.4784 54.3191 74.4595 54.1411H36.5351C36.5162 54.3197 36.4955 54.5068 36.398 54.6615C35.0391 56.8242 35.0391 59.1514 35.0391 61.6614C35.0391 67.4743 42.4308 72.5479 50.0504 75.3212C55.6908 77.153 60.4945 76.9933 64.0319 76.2907Z" fill="#FFF5CA"/>
<path d="M55.2849 62.4018C59.9223 62.4018 63.6821 58.7035 63.6821 54.1411H46.8878C46.8878 58.7029 50.647 62.4018 55.2849 62.4018Z" fill="#EAD991"/>
<path d="M56.1502 59.4902C56.1496 59.4902 56.1496 59.4902 56.1502 59.4902L54.419 59.4896C53.7463 59.4896 53.2003 58.9436 53.2009 58.2703C53.2009 57.5975 53.7469 57.0521 54.4196 57.0521L56.1508 57.0527C56.8236 57.0527 57.3696 57.5987 57.369 58.2721C57.3684 58.9448 56.823 59.4902 56.1502 59.4902Z" fill="#582612"/>
<path d="M64.0319 71.8825C60.4945 72.5851 55.6908 72.7448 50.0498 70.913C43.1913 68.4164 36.4083 64.0246 35.1085 58.9381C34.9629 59.8126 34.8221 60.7352 34.8221 61.6529C34.8221 67.4657 42.4302 72.5473 50.0498 75.3212C55.6902 77.153 60.4939 76.9933 64.0319 76.2907C70.7168 74.9629 75.8501 69.2835 76.1554 62.389C76.1664 62.1453 76.1719 61.8997 76.1719 61.6529C76.1719 60.8948 76.114 60.1508 76.0141 59.4208C75.1116 65.6541 70.2445 70.6485 64.0319 71.8825Z" fill="#D1262C"/>
</svg>
